<mxfile host="app.diagrams.net" modified="2023-08-05T13:20:57.685Z" agent="Mozilla/5.0 (Windows NT 10.0; Win64; x64) AppleWebKit/537.36 (KHTML, like Gecko) Chrome/115.0.0.0 Safari/537.36 Edg/115.0.1901.188" etag="-rOmWDU4wAdw1_MPwyXx" version="21.6.6" type="github">
  <diagram name="Page-1" id="e92pFJtTAgTPSM_yZ_QB">
    <mxGraphModel dx="1423" dy="819" grid="1" gridSize="10" guides="1" tooltips="1" connect="1" arrows="1" fold="1" page="1" pageScale="1" pageWidth="850" pageHeight="1100" math="0" shadow="0">
      <root>
        <mxCell id="0" />
        <mxCell id="1" parent="0" />
        <mxCell id="mdS3PxRhcJVPlUNp_Cys-1" value="User flow" style="rounded=1;whiteSpace=wrap;html=1;" vertex="1" parent="1">
          <mxGeometry x="190" y="70" width="120" height="60" as="geometry" />
        </mxCell>
        <mxCell id="mdS3PxRhcJVPlUNp_Cys-4" style="edgeStyle=orthogonalEdgeStyle;rounded=0;orthogonalLoop=1;jettySize=auto;html=1;entryX=0;entryY=0.5;entryDx=0;entryDy=0;" edge="1" parent="1" source="mdS3PxRhcJVPlUNp_Cys-2" target="mdS3PxRhcJVPlUNp_Cys-3">
          <mxGeometry relative="1" as="geometry" />
        </mxCell>
        <mxCell id="mdS3PxRhcJVPlUNp_Cys-6" style="edgeStyle=orthogonalEdgeStyle;rounded=0;orthogonalLoop=1;jettySize=auto;html=1;entryX=0;entryY=0.5;entryDx=0;entryDy=0;" edge="1" parent="1" source="mdS3PxRhcJVPlUNp_Cys-2" target="mdS3PxRhcJVPlUNp_Cys-5">
          <mxGeometry relative="1" as="geometry" />
        </mxCell>
        <mxCell id="mdS3PxRhcJVPlUNp_Cys-2" value="User" style="shape=umlActor;verticalLabelPosition=bottom;verticalAlign=top;html=1;outlineConnect=0;" vertex="1" parent="1">
          <mxGeometry x="100" y="290" width="30" height="60" as="geometry" />
        </mxCell>
        <mxCell id="mdS3PxRhcJVPlUNp_Cys-9" style="edgeStyle=orthogonalEdgeStyle;rounded=0;orthogonalLoop=1;jettySize=auto;html=1;entryX=0;entryY=0.5;entryDx=0;entryDy=0;" edge="1" parent="1" source="mdS3PxRhcJVPlUNp_Cys-3" target="mdS3PxRhcJVPlUNp_Cys-8">
          <mxGeometry relative="1" as="geometry" />
        </mxCell>
        <mxCell id="mdS3PxRhcJVPlUNp_Cys-3" value="Upload Job Description" style="rounded=1;whiteSpace=wrap;html=1;" vertex="1" parent="1">
          <mxGeometry x="250" y="220" width="120" height="60" as="geometry" />
        </mxCell>
        <mxCell id="mdS3PxRhcJVPlUNp_Cys-10" style="edgeStyle=orthogonalEdgeStyle;rounded=0;orthogonalLoop=1;jettySize=auto;html=1;entryX=0;entryY=0.5;entryDx=0;entryDy=0;" edge="1" parent="1" source="mdS3PxRhcJVPlUNp_Cys-5" target="mdS3PxRhcJVPlUNp_Cys-8">
          <mxGeometry relative="1" as="geometry" />
        </mxCell>
        <mxCell id="mdS3PxRhcJVPlUNp_Cys-5" value="Upload CVs" style="rounded=1;whiteSpace=wrap;html=1;" vertex="1" parent="1">
          <mxGeometry x="250" y="350" width="120" height="60" as="geometry" />
        </mxCell>
        <mxCell id="mdS3PxRhcJVPlUNp_Cys-12" value="as per recommendations" style="edgeStyle=orthogonalEdgeStyle;rounded=0;orthogonalLoop=1;jettySize=auto;html=1;" edge="1" parent="1" source="mdS3PxRhcJVPlUNp_Cys-8" target="mdS3PxRhcJVPlUNp_Cys-11">
          <mxGeometry relative="1" as="geometry" />
        </mxCell>
        <mxCell id="mdS3PxRhcJVPlUNp_Cys-14" value="" style="edgeStyle=orthogonalEdgeStyle;rounded=0;orthogonalLoop=1;jettySize=auto;html=1;" edge="1" parent="1" source="mdS3PxRhcJVPlUNp_Cys-8" target="mdS3PxRhcJVPlUNp_Cys-13">
          <mxGeometry relative="1" as="geometry" />
        </mxCell>
        <mxCell id="mdS3PxRhcJVPlUNp_Cys-8" value="Analysis Service" style="rounded=1;whiteSpace=wrap;html=1;" vertex="1" parent="1">
          <mxGeometry x="470" y="280" width="120" height="60" as="geometry" />
        </mxCell>
        <mxCell id="mdS3PxRhcJVPlUNp_Cys-15" style="edgeStyle=orthogonalEdgeStyle;rounded=0;orthogonalLoop=1;jettySize=auto;html=1;" edge="1" parent="1" source="mdS3PxRhcJVPlUNp_Cys-11" target="mdS3PxRhcJVPlUNp_Cys-13">
          <mxGeometry relative="1" as="geometry" />
        </mxCell>
        <mxCell id="mdS3PxRhcJVPlUNp_Cys-11" value="Finalizing Job Description" style="whiteSpace=wrap;html=1;rounded=1;" vertex="1" parent="1">
          <mxGeometry x="550" y="130" width="120" height="60" as="geometry" />
        </mxCell>
        <mxCell id="mdS3PxRhcJVPlUNp_Cys-17" value="" style="edgeStyle=orthogonalEdgeStyle;rounded=0;orthogonalLoop=1;jettySize=auto;html=1;" edge="1" parent="1" source="mdS3PxRhcJVPlUNp_Cys-13" target="mdS3PxRhcJVPlUNp_Cys-16">
          <mxGeometry relative="1" as="geometry" />
        </mxCell>
        <mxCell id="mdS3PxRhcJVPlUNp_Cys-19" value="" style="edgeStyle=orthogonalEdgeStyle;rounded=0;orthogonalLoop=1;jettySize=auto;html=1;" edge="1" parent="1" source="mdS3PxRhcJVPlUNp_Cys-13" target="mdS3PxRhcJVPlUNp_Cys-18">
          <mxGeometry relative="1" as="geometry" />
        </mxCell>
        <mxCell id="mdS3PxRhcJVPlUNp_Cys-13" value="CV Ranking and shortlisting" style="whiteSpace=wrap;html=1;rounded=1;" vertex="1" parent="1">
          <mxGeometry x="670" y="280" width="120" height="60" as="geometry" />
        </mxCell>
        <mxCell id="mdS3PxRhcJVPlUNp_Cys-16" value="Email Notifications" style="whiteSpace=wrap;html=1;rounded=1;" vertex="1" parent="1">
          <mxGeometry x="670" y="420" width="120" height="60" as="geometry" />
        </mxCell>
        <mxCell id="mdS3PxRhcJVPlUNp_Cys-21" value="" style="edgeStyle=orthogonalEdgeStyle;rounded=0;orthogonalLoop=1;jettySize=auto;html=1;" edge="1" parent="1" source="mdS3PxRhcJVPlUNp_Cys-18" target="mdS3PxRhcJVPlUNp_Cys-20">
          <mxGeometry relative="1" as="geometry" />
        </mxCell>
        <mxCell id="mdS3PxRhcJVPlUNp_Cys-18" value="Generate Screening Questions" style="whiteSpace=wrap;html=1;rounded=1;" vertex="1" parent="1">
          <mxGeometry x="870" y="280" width="120" height="60" as="geometry" />
        </mxCell>
        <mxCell id="mdS3PxRhcJVPlUNp_Cys-23" value="" style="edgeStyle=orthogonalEdgeStyle;rounded=0;orthogonalLoop=1;jettySize=auto;html=1;" edge="1" parent="1" source="mdS3PxRhcJVPlUNp_Cys-20" target="mdS3PxRhcJVPlUNp_Cys-22">
          <mxGeometry relative="1" as="geometry" />
        </mxCell>
        <mxCell id="mdS3PxRhcJVPlUNp_Cys-20" value="Conduct Interview Based on generated questions" style="whiteSpace=wrap;html=1;rounded=1;" vertex="1" parent="1">
          <mxGeometry x="1070" y="280" width="120" height="60" as="geometry" />
        </mxCell>
        <mxCell id="mdS3PxRhcJVPlUNp_Cys-22" value="Promote candidate to in-person interview" style="whiteSpace=wrap;html=1;rounded=1;" vertex="1" parent="1">
          <mxGeometry x="1270" y="280" width="120" height="60" as="geometry" />
        </mxCell>
      </root>
    </mxGraphModel>
  </diagram>
</mxfile>
